<svg xmlns="http://www.w3.org/2000/svg" viewBox="0 0 709 188"><defs><style>.cls-1{fill:#fff;}</style></defs><title>Asset 2</title><g id="Layer_2" data-name="Layer 2"><g id="Layer_1-2" data-name="Layer 1"><g id="jUh3nR.tif"><path class="cls-1" d="M97,188a7.87,7.87,0,0,0-1.61-1c-18.21-5.8-26.24-21.29-20.48-39.55C80.54,129.6,98.3,116.34,117,116.53c4.31,0,6.35-1.3,8.24-5.1,6.57-13.24,13.61-26.25,20.4-39.38.72-1.39,2.64-3.29-.66-4.18l-.19-1c-2.39-1.87-5.26-.27-7.8-1.07l1-.83c1-.07,2.4.39,2.67-.67.41-1.63-1.38-1.63-2.33-2-8.81-3-17.68-5.84-26.48-8.88a11.12,11.12,0,0,0-7.66-.31A15.24,15.24,0,0,1,91.7,51.91c-4.72-2.57-4.92-7.21-.62-10.42s13.51-3.67,18-.58c1.06.72,2.61,1.92,2.57,2.84-.21,5.42,4.08,6,7.55,7.6,6.07,2.72,12.12,5.47,18.22,8.12,1.08.47,2.16,1.79,3.56.58l0-.09c-.2,1.38.71,1,1.46.93l6.7,4.85c.28-1.78-.87-2.14-1.34-2.92l1.34-1a2.46,2.46,0,0,0,.72.12l2,.06c.7,1.12,1.93,1.15,3,1.46l-.09.3,0,1.35L154,67l-.88,3.13c1,4.59,3.8,8.41,5.57,12.67.8,1.93,2.63,1.75,4.17,2.2,6.46,1.87,10.13,6.83,9.18,12.36-.86,5-6.16,8.65-12.48,8.53-7.37-.14-13.4-5.46-13.11-11.59.09-1.86.31-4.14,1.81-5,6-3.5,4-8.41,2.85-13.28-.48-2.06-.86-4.15-1.3-6.3-1.42.69-1.57,1.9-2,3q-8.12,21.16-16.27,42.31c-.79,2.06-1.56,3.55,1.2,5.28,14.5,9.06,19.11,23.89,12.47,39.71C139.32,174,128.77,183,114,187c-.76.21-1.7,0-2,1Z"/><path class="cls-1" d="M0,62C11.66,47,27.37,42.53,45.44,45.08c7,1,13.26,3.87,14.42,12.19.38,2.7,2.44,1.74,3.85,1.84,23.55,1.68,47.11,3.28,70.66,5,1.24.09,2.72-.43,3.68.92l-1,.83c-25-.4-49.94-.76-74.91-1.24a10,10,0,0,0-7.41,3C41.73,78.86,26.65,81.93,10,77.84c-4.19-1-6.77-4.41-10-6.84Z"/><path class="cls-1" d="M141,60c-7.29-7.52-16-13.39-23.93-20.13-6.22-5.28-12.76-10.17-18.94-15.48A9.29,9.29,0,0,0,90,22a35,35,0,0,1-21.38-3c-3.35-1.68-6.56-3.84-6.45-8.09s3.43-6.11,6.71-8C71.16,1.69,74,1.84,76,0H93c1.39,1.64,3.56,1.33,5.3,2.13,3.82,1.77,7.86,3.46,8.6,8.19.77,4.89-3.29,6.81-6.79,9.36,5,4.64,9.94,9.33,15,13.79,10.35,9,20,18.84,30.82,27.38l1.81,2c.47.77,1.63,1.14,1.34,2.92l-6.7-4.85a1.33,1.33,0,0,0-1.46-.93Z"/><path class="cls-1" d="M153.11,70.1,154,67l1,0c.2,2.66,2.67,3.29,4.31,4.42,12.6,8.67,25.36,17.11,38,25.77,2.48,1.7,4.27,1.92,7.15.43,11.06-5.72,27.67-1,36.24,9.84,4.78,6,8.23,12.65,7.68,20.49-.91,13.15-11.38,20.49-25.67,17.92C208,143.23,193.17,129,194.93,111.94c.07-.66-.15-1.47.16-2,3.85-6.21-1-8.55-4.87-11.57-11.29-8.76-22.47-17.67-33.68-26.54C155.5,71,154.63,70,153.11,70.1Z"/><path class="cls-1" d="M155,67l-1,0,.74-1.85c17.76,1,35.51,2,53.26,3.09,2,.12,3-.31,3.63-2.3,1.89-5.94,6.8-7.53,12.22-7.44,9.39.16,17,4.26,22.56,11.83,2.81,3.82,4,8.19,1.76,12.65s-6.51,5.67-11,5.59c-9.53-.17-17.55-3.89-22.95-11.89a8,8,0,0,0-6.68-4C190,70.91,172.51,68.91,155,67Z"/><path class="cls-1" d="M151.84,62l-2-.06c2.58-9.78,5.1-19.57,7.77-29.33.58-2.11-.06-3-2-3.68a18.28,18.28,0,0,1-8.15-5.53c-3.77-4.63-2.81-9.14,2.46-11.89,8.38-4.38,23.9-1.49,30.07,5.59,4,4.6,3.1,9.45-2.3,12.3a17.62,17.62,0,0,1-10.18,1.71c-3.15-.31-4.61.76-5.66,3.83C158.75,44,155.21,53,151.84,62Z"/><path class="cls-1" d="M154.77,63.76l.09-.3c7.48-5.63,16.53-8.16,24.71-12.41,2-1.06,3.83-1.73,3.4-4.6-.79-5.22,3-6.83,6.89-7.22a16.15,16.15,0,0,1,14.33,5.41c3.66,4.16,2.5,8.51-2.68,10.55-3.71,1.46-7.31.78-10.59-.86-2.84-1.42-5.19-1.1-8,0-8.35,3.22-16.82,6.15-25.26,9.13A12.39,12.39,0,0,1,154.77,63.76Z"/><path class="cls-1" d="M147.79,62.82l-1.81-2c-1.29-5.93-2.1-12-8.44-15.28-3.35-1.74-3.13-4.66.14-6.47,3.54-2,6.78-1,9.71,1.36.9.71,1.86,2.23,1,3-4.74,4.68-.46,9.31-.14,13.93a34.86,34.86,0,0,0,.85,4.38Z"/><path class="cls-1" d="M144.83,66.88l.19,1c-3.11,2.9-7.19,4-10.86,5.9q-10,5-20.3,9.62c-4.82,2.15-8.35,4-9.87,10.48-2.92,12.4-24.12,17.67-34,9.39-4.51-3.79-4.92-10.58-.94-15.69,6.54-8.39,19.66-11.56,29.26-6.9a7.58,7.58,0,0,0,6.58.48C118.17,76.27,131.52,71.61,144.83,66.88Z"/></g><g id="jUh3nR.tif-2" data-name="jUh3nR.tif"><path class="cls-1" d="M709,106.94c-4.38-.18-.88-3.78-3.1-5.63-1.23-.47-1.14,2.2-2.9,2.42l-2.52-2.39c-1.63,1.71.75,4.55-2.76,6.05-1.06-3.83-.44-7.47-.41-11,3.67-1.52,3.75,2.73,6.06,3.45,2-1.1,2.35-4.65,5.63-3.88Z"/><path class="cls-1" d="M446.15,89.58,428.06,68.94H416.75V89.88H404.33V25.33c5,0,10.07-.08,15.16,0,6.15.12,12.32-.39,18.47.38,11.16,1.39,18.73,8,20,17.7,1.58,11.91-3.06,19.4-15.56,24.17l19.41,22ZM416.93,37.23v20c6.76,0,13.22.25,19.65-.08,5.43-.27,8.93-4.17,9.22-9.37s-3.37-10-8.73-10.41C430.49,36.88,423.84,37.23,416.93,37.23Z"/><path class="cls-1" d="M372.11,162.09c-20,0-33.11-13.23-33.12-33.28,0-20.55,13.32-34.1,33.5-34.05,19.55,0,33.26,14,33.07,33.6C405.36,148.68,392.05,162.1,372.11,162.09Zm21-33.77c0-13.35-8.47-22.38-20.87-22.38-12.65,0-21.2,9.2-21.09,22.71.11,13.25,8.65,22.17,21.18,22.1S393.19,141.71,393.14,128.32Z"/><path class="cls-1" d="M466.24,89.86V25.59H514c1.09,3.79.66,7.51.29,11.8H478.54V52h34.27V63.77h-34.4v14h35.91V89.86Z"/><path class="cls-1" d="M526.19,133.92v14.33h35.54c.77,4.26.42,8,.28,12.16H514.07V96.21h47.72c.89,3.62.13,7.38.43,11.54H526.42c-.72,5-.43,9.53-.21,14.51h30.61c1.35,3.92.58,7.51.66,11.66Z"/><path class="cls-1" d="M537.79,78.12,532.3,89.84H518.77l28.89-64.32h13.56l28.93,64.39H576.55l-5.43-11.79Zm16.67-38.51L542.85,66.24H566Z"/><path class="cls-1" d="M353,52.51h31.68V26.07h12.08V89.7c-3.67.78-7.42.34-11.77.25V64.41H353.27V89.75H341.22V26.05H353Z"/><path class="cls-1" d="M453.24,96H463c4.87,6.12,9.94,12.47,15,18.84s10.08,12.73,16,20.24V96H506.6v64.24c-2.41,1.08-4.9.17-7.49.66l-33.92-43.4V135.4L453,119.94C453,108.73,453.24,105.95,453.24,96Z"/><path class="cls-1" d="M338.1,104.59l-7.81,7.47c-14.46-7.95-26.42-7-33.57,2.77-6.22,8.46-5.41,22.25,1.7,29.59,6.42,6.64,21.1,9.11,32.14-.32a53.49,53.49,0,0,1,8.4,8.19c-12.12,12.86-37,13.14-49.53.69s-12.38-36.23.35-49S325.46,91.46,338.1,104.59Z"/><path class="cls-1" d="M616.91,144.28,625,152.2c-11.11,12.62-35.56,13.39-48.57,1.61-13.21-12-13.62-36.45-.83-49.7,12.18-12.62,35.38-12.58,48.45.26l-8.33,7.51a24.16,24.16,0,0,0-21.65-4.58A19.15,19.15,0,0,0,582.79,115c-6.09,8.55-5.41,21.85,1.53,29.12C592.13,152.26,604.6,152.32,616.91,144.28Z"/><path class="cls-1" d="M424.05,117.59v42.73c-4.21.79-8.11.5-12.32.22V96.27H422c13.86,17.49,28,35.35,42.17,53.23,2.59,3.27,1,7,1.26,10.81-2.57.83-5,.38-7.76.4Z"/><path class="cls-1" d="M581.2,37V25.63h53a43.08,43.08,0,0,1,.08,11.07H614.1V89.77H601.51V37Z"/><path class="cls-1" d="M662.56,160.55H650.25V107.32H630.07c-1.14-3.91-.41-7.34-.62-11.07h53.13v10.89h-20Z"/><path class="cls-1" d="M333.41,25.61v11H313.16V89.74H301V37.05H280.79c-1-4.09-.71-7.63-.35-11.45Z"/><path class="cls-1" d="M691,108.06c-1.55-3.6-.6-6.41-1.11-9-.36-1.72-3.13-.08-3.2-2.67a23,23,0,0,1,8.92-.15c.35,2.69-2.34,1.3-3.18,2.88C691.48,101.37,693,104.34,691,108.06Z"/></g></g></g></svg>